<?xml version="1.0" encoding="utf-8"?>
<!-- Generator: Adobe Illustrator 24.0.2, SVG Export Plug-In . SVG Version: 6.00 Build 0)  -->
<svg version="1.1" id="Layer_1" xmlns="http://www.w3.org/2000/svg" xmlns:xlink="http://www.w3.org/1999/xlink" x="0px" y="0px"
	 viewBox="0 0 20 20" style="enable-background:new 0 0 20 20;" xml:space="preserve">
<style type="text/css">
	.st0{fill:#F0F0F0;}
	.st1{fill:#D80027;}
	.st2{fill:#0052B4;}
</style>
<circle class="st0" cx="10" cy="10" r="10"/>
<g>
	<path class="st1" d="M9.6,10H20c0-0.9-0.1-1.8-0.3-2.6H9.6V10z"/>
	<path class="st1" d="M9.6,4.8h9c-0.6-1-1.4-1.9-2.3-2.6H9.6V4.8z"/>
	<path class="st1" d="M10,20c2.4,0,4.5-0.8,6.2-2.2H3.8C5.5,19.2,7.6,20,10,20z"/>
	<path class="st1" d="M1.5,15.2h17.1c0.5-0.8,0.9-1.7,1.1-2.6H0.3C0.6,13.5,1,14.4,1.5,15.2z"/>
</g>
<path class="st2" d="M4.6,1.6h0.9L4.7,2.2l0.3,1L4.2,2.6L3.3,3.2l0.3-0.9C2.9,2.9,2.2,3.7,1.7,4.5H2L1.4,4.9C1.3,5,1.3,5.1,1.2,5.3
	l0.3,0.8L1,5.7C0.8,6,0.7,6.2,0.6,6.5l0.3,0.9h1L1.1,8l0.3,1L0.6,8.4L0.1,8.8C0,9.2,0,9.6,0,10h10c0-5.5,0-6.2,0-10
	C8,0,6.2,0.6,4.6,1.6z M5,9L4.2,8.4L3.3,9l0.3-1L2.8,7.4h1l0.3-1l0.3,1h1L4.7,8L5,9z M4.7,5.1l0.3,1L4.2,5.5L3.3,6.1l0.3-1L2.8,4.5
	h1l0.3-1l0.3,1h1L4.7,5.1z M8.6,9L7.8,8.4L6.9,9l0.3-1L6.4,7.4h1l0.3-1l0.3,1h1L8.3,8L8.6,9z M8.3,5.1l0.3,1L7.8,5.5L6.9,6.1l0.3-1
	L6.4,4.5h1l0.3-1l0.3,1h1L8.3,5.1z M8.3,2.2l0.3,1L7.8,2.6L6.9,3.2l0.3-1L6.4,1.6h1l0.3-1l0.3,1h1L8.3,2.2z"/>
</svg>
