<?xml version="1.0" encoding="utf-8"?>
<!-- Generator: Adobe Illustrator 24.0.2, SVG Export Plug-In . SVG Version: 6.00 Build 0)  -->
<svg version="1.2" baseProfile="tiny" id="Capa_1" xmlns="http://www.w3.org/2000/svg" xmlns:xlink="http://www.w3.org/1999/xlink"
	 x="0px" y="0px" viewBox="0 0 30 30" xml:space="preserve">
<g>
	<g>
		<path d="M28.7,6.8C27.9,5.4,27,5.1,25.2,5C23.4,4.9,18.9,4.8,15,4.8C11.1,4.8,6.6,4.9,4.8,5C3,5.1,2.1,5.4,1.3,6.8
			C0.4,8.3,0,10.7,0,15.1c0,0,0,0,0,0c0,0,0,0,0,0v0c0,4.4,0.4,6.9,1.3,8.3c0.8,1.4,1.7,1.7,3.5,1.8c1.8,0.1,6.3,0.2,10.2,0.2
			c3.9,0,8.4-0.1,10.2-0.2c1.8-0.1,2.7-0.4,3.5-1.8c0.8-1.4,1.3-3.9,1.3-8.3c0,0,0,0,0,0c0,0,0,0,0,0C30,10.7,29.6,8.3,28.7,6.8z
			 M11.3,20.8V9.5l9.4,5.6L11.3,20.8z"/>
	</g>
</g>
</svg>
